<svg xmlns="http://www.w3.org/2000/svg" width="48.998" height="70.09"><path data-name="Shape 4" fill="#fff" d="M19.912 33.41h2.07v36.68h-2.07z"/><g data-name="Ellipse 3" fill="none"><path d="M15.027 30.996a5.985 5.985 0 01-6.978-1.019 5.776 5.776 0 01-1.059-6.833 5.806 5.806 0 01-.011-11.125 5.776 5.776 0 011.07-6.812 5.985 5.985 0 016.977-1.02 5.806 5.806 0 0111.157.016 5.985 5.985 0 016.974 1.021 5.775 5.775 0 011.076 6.8 5.806 5.806 0 01-.011 11.114 5.774 5.774 0 01-1.065 6.82 5.983 5.983 0 01-6.975 1.021 5.806 5.806 0 01-11.155.016zm1.391-9.271a5.8 5.8 0 011.441 2.31 5.762 5.762 0 015.483 0 5.8 5.8 0 011.446-2.325 5.908 5.908 0 012.392-1.436 5.762 5.762 0 01-.011-5.365 5.907 5.907 0 01-2.382-1.432 5.8 5.8 0 01-1.447-2.328 5.761 5.761 0 01-5.481 0 5.8 5.8 0 01-1.442 2.313 5.908 5.908 0 01-2.4 1.438 5.761 5.761 0 01-.011 5.388 5.908 5.908 0 012.412 1.438z"/><path d="M20.602 32.18c1.25 0 2.337-.827 2.705-2.058l.693-2.32-2.087-1.13a2.722 2.722 0 00-1.31-.332c-.466 0-.908.112-1.314.333l-2.09 1.134.7 2.323c.37 1.226 1.456 2.05 2.703 2.05m-8.369-3.495c.488 0 .97-.118 1.393-.342l2.127-1.123-.742-2.241a2.895 2.895 0 00-1.888-1.828l-2.353-.727-1.131 2.128a2.767 2.767 0 00.516 3.288 2.94 2.94 0 002.078.845m16.739-.017c.788 0 1.526-.3 2.079-.846a2.767 2.767 0 00.519-3.281l-1.133-2.142-2.363.738a2.896 2.896 0 00-1.882 1.832l-.734 2.238 2.123 1.12c.423.223.904.341 1.391.341m1.994-7.656l2.362-.737c1.21-.378 2.024-1.46 2.024-2.695 0-1.231-.811-2.314-2.018-2.693l-2.375-.746-1.133 2.16a2.726 2.726 0 00-.314 1.28c0 .455.107.888.319 1.287l1.135 2.144m-20.74-.009l1.134-2.129c.214-.4.322-.836.322-1.294 0-.453-.106-.886-.317-1.284l-1.132-2.146-2.364.734c-1.213.377-2.027 1.46-2.027 2.696 0 1.239.816 2.322 2.032 2.697l2.352.726m20.219-8.21l1.13-2.16a2.77 2.77 0 00-.525-3.272 2.938 2.938 0 00-2.078-.845c-.487 0-.968.118-1.39.34l-2.124 1.12.733 2.238a2.894 2.894 0 001.877 1.832l2.377.746m-19.683-.025l2.366-.735a2.895 2.895 0 001.884-1.828l.74-2.241-2.126-1.123a2.992 2.992 0 00-1.392-.341c-.788 0-1.526.3-2.078.844a2.77 2.77 0 00-.522 3.28l1.128 2.144m9.84-3.927c.464 0 .905-.111 1.31-.33L24 7.38l-.692-2.32C22.94 3.827 21.853 3 20.602 3c-1.248 0-2.334.824-2.703 2.052l-.7 2.323 2.09 1.133c.407.22.848.332 1.313.332m0 26.34c-2.625 0-4.844-1.761-5.575-4.184-.87.46-1.832.69-2.794.69a5.942 5.942 0 01-4.184-1.709 5.776 5.776 0 01-1.06-6.833c-2.403-.742-4.147-2.952-4.147-5.564 0-2.608 1.739-4.816 4.137-5.56a5.776 5.776 0 011.07-6.813A5.943 5.943 0 0112.234 3.5c.96 0 1.922.23 2.792.688C15.756 1.763 17.976 0 20.602 0c2.632 0 4.856 1.77 5.58 4.203a5.986 5.986 0 012.79-.687c1.515 0 3.03.57 4.184 1.708a5.776 5.776 0 011.077 6.8c2.389.751 4.12 2.955 4.12 5.556 0 2.605-1.736 4.812-4.131 5.559a5.774 5.774 0 01-1.066 6.82 5.942 5.942 0 01-4.184 1.709c-.96 0-1.921-.23-2.79-.688-.726 2.43-2.95 4.2-5.58 4.2zM17.86 11.146a5.8 5.8 0 01-1.442 2.312 5.908 5.908 0 01-2.4 1.438c.425.804.664 1.716.664 2.684 0 .976-.244 1.896-.674 2.705a5.909 5.909 0 012.41 1.44 5.797 5.797 0 011.44 2.31 5.736 5.736 0 012.744-.695c.99 0 1.923.251 2.74.693.279-.85.76-1.65 1.445-2.324a5.908 5.908 0 012.393-1.436 5.733 5.733 0 01-.668-2.693c0-.963.237-1.872.657-2.672a5.907 5.907 0 01-2.382-1.433 5.797 5.797 0 01-1.446-2.327 5.734 5.734 0 01-2.739.692 5.736 5.736 0 01-2.742-.694z" fill="#fff"/></g><g data-name="Ellipse 2" transform="translate(9.942 7.09)" fill="none" stroke="#fff" stroke-width="3"><ellipse cx="10.65" cy="10.5" rx="10.65" ry="10.5" stroke="none"/><ellipse cx="10.65" cy="10.5" rx="9.15" ry="9"/></g><g data-name="Shape 5" fill="none"><path d="M21.472 56.79l-1.045-1.044 13.947-13.827 1.045 1.044z"/><path d="M21.472 56.785l-1.045-1.044 13.946-13.827 1.045 1.045-13.946 13.826z" fill="#fff"/></g><g data-name="Shape 6" fill="none"><path d="M21.633 55.205l-1.045 1.744L3.155 39.666 4.2 37.922z"/><path d="M20.588 56.95L3.155 39.665 4.2 37.922l17.433 17.283-1.045 1.744z" fill="#fff"/></g><g data-name="Ellipse 1" fill="none"><path d="M49.002 30.037s-.984 14.419-5.239 18.637-10.74 4.629-14.484.917-3.331-10.141.924-14.36 18.799-5.194 18.799-5.194z"/><path d="M45.629 33.4c-1.166.149-2.528.35-3.945.613-6.66 1.238-8.774 2.754-9.373 3.349-1.65 1.635-2.595 3.781-2.595 5.889 0 1.165.29 2.84 1.67 4.21 1.085 1.075 2.606 1.667 4.284 1.667 2.142 0 4.32-.942 5.977-2.584.597-.592 2.121-2.681 3.368-9.269.263-1.39.464-2.727.614-3.875m3.369-3.363s-.984 14.419-5.24 18.638c-2.304 2.285-5.264 3.453-8.088 3.453-2.389 0-4.68-.836-6.396-2.537-3.744-3.712-3.33-10.141.925-14.36 4.255-4.218 18.799-5.194 18.799-5.194z" fill="#fff"/></g><g data-name="Ellipse 1" fill="none"><path d="M.002 36.49S.723 47 3.84 50.075s7.867 3.374 10.61.668 2.44-7.392-.677-10.467S.002 36.49.002 36.49z"/><path d="M3.412 39.889c.084.551.182 1.137.296 1.737.917 4.812 2.024 6.102 2.236 6.311 1.065 1.05 2.456 1.653 3.818 1.653.72 0 1.753-.17 2.578-.984.81-.8.98-1.794.98-2.486 0-1.318-.604-2.67-1.657-3.71-.214-.212-1.532-1.312-6.436-2.221a48.692 48.692 0 00-1.815-.3M0 36.488s10.653.711 13.77 3.786c3.116 3.075 3.42 7.761.677 10.467-1.257 1.24-2.935 1.85-4.685 1.85-2.068 0-4.236-.852-5.925-2.518C.72 46.998 0 36.488 0 36.488z" fill="#fff"/></g></svg>