<svg xmlns="http://www.w3.org/2000/svg" width="70" height="69.999"><g fill="#030303"><g data-name="Ellipse 5"><path d="M33.52 64.979a1.4 1.4 0 111.4 1.4 1.4 1.4 0 01-1.4-1.4zm7.825-.642a1.4 1.4 0 111.352 1.039 1.4 1.4 0 01-1.352-1.038zm-14.575.973a1.4 1.4 0 11.363.048 1.4 1.4 0 01-.363-.047zm21.977-3.641a1.4 1.4 0 111.213.7 1.4 1.4 0 01-1.213-.699zm-29.573.5a1.4 1.4 0 11.7.188 1.4 1.4 0 01-.7-.19zm36.032-4.99a1.4 1.4 0 11.99.41 1.4 1.4 0 01-.989-.412zm-42.556-.014a1.4 1.4 0 11.99.41 1.4 1.4 0 01-.989-.411zm47.632-6a1.4 1.4 0 11.7.188 1.4 1.4 0 01-.698-.188zm-52.639-.522a1.4 1.4 0 111.214.7 1.4 1.4 0 01-1.212-.7zm55.986-6.6a1.4 1.4 0 11.364.048 1.4 1.4 0 01-.362-.047zm-59.134-.995a1.4 1.4 0 111.351 1.038A1.4 1.4 0 014.5 43.049zm59.123-8.149a1.4 1.4 0 111.4 1.4A1.4 1.4 0 0163.62 34.9zm-60.2 0a1.4 1.4 0 111.4 1.4A1.4 1.4 0 013.42 34.9zm2.063-6.437a1.4 1.4 0 11.364.048 1.4 1.4 0 01-.362-.047zm57.163-.995a1.4 1.4 0 111.352 1.038 1.4 1.4 0 01-1.351-1.037zm-54.5-6.4a1.4 1.4 0 11.7.188 1.4 1.4 0 01-.696-.19zm51.631-.521a1.4 1.4 0 111.214.7 1.4 1.4 0 01-1.209-.702zm-47.14-5.935a1.4 1.4 0 11.99.41 1.4 1.4 0 01-.985-.412zm42.58-.014a1.4 1.4 0 11.99.41 1.4 1.4 0 01-.986-.407zm-36.572-5.06a1.4 1.4 0 111.214.7 1.4 1.4 0 01-1.21-.701zm30.628.5a1.4 1.4 0 11.7.188 1.4 1.4 0 01-.696-.193zM25.759 6.195a1.4 1.4 0 111.352 1.038 1.4 1.4 0 01-1.348-1.043zm16.588.972a1.4 1.4 0 11.364.048 1.4 1.4 0 01-.36-.053zm-8.831-2.381a1.4 1.4 0 111.4 1.4A1.4 1.4 0 0133.52 4.78z"/><path d="M34.92 66.38a1.4 1.4 0 110-2.799 1.4 1.4 0 010 2.799zm7.777-1.003a1.4 1.4 0 11.002-2.802 1.4 1.4 0 01-.002 2.802zm-15.564-.018a1.4 1.4 0 110-2.801 1.4 1.4 0 010 2.8zm22.828-2.989a1.4 1.4 0 11-.003-2.8 1.4 1.4 0 01.003 2.8zm-30.088-.016a1.4 1.4 0 11.003-2.8 1.4 1.4 0 01-.003 2.8zm36.324-4.767a1.401 1.401 0 11.99-2.39 1.401 1.401 0 01-.99 2.39zm-42.556-.013a1.4 1.4 0 11.002-2.8 1.4 1.4 0 01-.002 2.8zm47.34-6.221a1.4 1.4 0 11.005-2.801 1.4 1.4 0 01-.004 2.8zm-52.123-.01a1.4 1.4 0 11-.002-2.799 1.4 1.4 0 01.002 2.8zm55.137-7.251a1.4 1.4 0 11-.002-2.802 1.4 1.4 0 01.002 2.802zm-58.146-.005a1.4 1.4 0 11.001-2.8 1.4 1.4 0 01-.001 2.8zM65.02 36.3a1.4 1.4 0 110-2.8 1.4 1.4 0 010 2.8zm-60.2 0a1.4 1.4 0 11.001-2.801 1.4 1.4 0 010 2.801zm1.026-7.789a1.399 1.399 0 11.36-2.753 1.4 1.4 0 01-.36 2.753zm58.152-.005a1.401 1.401 0 010-2.8 1.4 1.4 0 010 2.8zm-55.15-7.253a1.4 1.4 0 11.001-2.8 1.4 1.4 0 01-.001 2.8zm52.146-.01a1.4 1.4 0 11-.003-2.801 1.4 1.4 0 01.003 2.801zM13.629 15.02a1.4 1.4 0 11-.001-2.8 1.4 1.4 0 01.001 2.8zm42.58-.014a1.398 1.398 0 110-2.8 1.4 1.4 0 110 2.8zm-36.348-4.77a1.4 1.4 0 11-.003-2.802 1.4 1.4 0 01.003 2.801zm30.113-.016a1.4 1.4 0 11.003-2.802 1.4 1.4 0 01-.003 2.802zM27.116 7.228a1.401 1.401 0 010-2.8 1.4 1.4 0 010 2.8zm15.599-.018a1.4 1.4 0 11-.003-2.801 1.4 1.4 0 01.003 2.801zM34.92 6.18a1.4 1.4 0 110-2.798 1.4 1.4 0 010 2.798z" fill="#fff"/></g><g data-name="Rectangle 15"><path d="M34 70v-9h2v9zm27-34v-2h9v2zM0 36v-2h9v2zM34 9V0h2v9z"/><path d="M36 70h-2v-9h2v9zm34-34h-9v-2h9v2zM9 36H0v-2h9v2zM36 9h-2V0h2v9z" fill="#fff"/></g><g data-name="Shape 9"><path d="M34 36H17v-2h17V11h2v25z"/><path d="M36 36H17v-2h17V11h2v25z" fill="#fff"/></g><g data-name="Ellipse 6" transform="translate(31.52 31.5)" stroke="#fff" stroke-width="3"><circle cx="3.5" cy="3.5" r="3.5" stroke="none"/><circle cx="3.5" cy="3.5" r="2" fill="none"/></g></g></svg>